<mxfile host="app.diagrams.net" agent="Mozilla/5.0 (Windows NT 10.0; Win64; x64) AppleWebKit/537.36 (KHTML, like Gecko) Chrome/136.0.0.0 Safari/537.36" version="26.2.14">
  <diagram id="rpigNyJckrSimGNZbu6E" name="Page-1">
    <mxGraphModel dx="1713" dy="959" grid="1" gridSize="10" guides="1" tooltips="1" connect="1" arrows="1" fold="1" page="1" pageScale="1" pageWidth="1200" pageHeight="1920" math="0" shadow="0">
      <root>
        <mxCell id="0" />
        <mxCell id="1" parent="0" />
        <mxCell id="oTOOA_pkX1mUT1bbZCmd-199" value="" style="rounded=0;whiteSpace=wrap;html=1;fillColor=none;" vertex="1" parent="1">
          <mxGeometry x="40" y="600" width="360" height="320" as="geometry" />
        </mxCell>
        <mxCell id="12" value="&lt;span style=&quot;color: rgb(63, 63, 63); font-size: 18px;&quot;&gt;最小生成树-Kruskal克鲁斯卡尔算法（加边法）&lt;/span&gt;&lt;div&gt;&lt;span style=&quot;color: rgb(63, 63, 63); font-size: 18px;&quot;&gt;以边为核心，适合稀疏图&lt;/span&gt;&lt;/div&gt;" style="text;html=1;align=center;verticalAlign=middle;whiteSpace=wrap;rounded=0;" parent="1" vertex="1">
          <mxGeometry x="390" y="60" width="440" height="30" as="geometry" />
        </mxCell>
        <mxCell id="43" style="edgeStyle=none;html=1;exitX=0.5;exitY=1;exitDx=0;exitDy=0;entryX=0;entryY=0;entryDx=0;entryDy=0;endArrow=none;endFill=0;" parent="1" source="44" target="54" edge="1">
          <mxGeometry relative="1" as="geometry" />
        </mxCell>
        <mxCell id="44" value="&lt;font style=&quot;color: rgb(0, 0, 0); font-size: 18px;&quot;&gt;B&lt;/font&gt;" style="ellipse;whiteSpace=wrap;html=1;aspect=fixed;fillColor=#66B2FF;" parent="1" vertex="1">
          <mxGeometry x="80" y="240" width="40" height="40" as="geometry" />
        </mxCell>
        <mxCell id="45" style="edgeStyle=none;html=1;exitX=1;exitY=1;exitDx=0;exitDy=0;entryX=0;entryY=0;entryDx=0;entryDy=0;endArrow=none;endFill=0;" parent="1" source="48" target="51" edge="1">
          <mxGeometry relative="1" as="geometry" />
        </mxCell>
        <mxCell id="46" style="edgeStyle=none;html=1;exitX=0;exitY=1;exitDx=0;exitDy=0;entryX=1;entryY=0;entryDx=0;entryDy=0;endArrow=none;endFill=0;" parent="1" source="48" target="44" edge="1">
          <mxGeometry relative="1" as="geometry" />
        </mxCell>
        <mxCell id="47" style="edgeStyle=none;html=1;exitX=0.5;exitY=1;exitDx=0;exitDy=0;entryX=0.5;entryY=0;entryDx=0;entryDy=0;endArrow=none;endFill=0;" parent="1" source="48" target="57" edge="1">
          <mxGeometry relative="1" as="geometry" />
        </mxCell>
        <mxCell id="48" value="&lt;font style=&quot;color: rgb(0, 0, 0); font-size: 18px;&quot;&gt;A&lt;/font&gt;" style="ellipse;whiteSpace=wrap;html=1;aspect=fixed;fillColor=#66B2FF;" parent="1" vertex="1">
          <mxGeometry x="200" y="160" width="40" height="40" as="geometry" />
        </mxCell>
        <mxCell id="49" style="edgeStyle=none;html=1;exitX=1;exitY=1;exitDx=0;exitDy=0;entryX=1;entryY=0;entryDx=0;entryDy=0;endArrow=none;endFill=0;" parent="1" source="51" target="56" edge="1">
          <mxGeometry relative="1" as="geometry" />
        </mxCell>
        <mxCell id="50" style="edgeStyle=none;html=1;exitX=0;exitY=0.5;exitDx=0;exitDy=0;entryX=1;entryY=0;entryDx=0;entryDy=0;endArrow=none;endFill=0;" parent="1" source="51" target="57" edge="1">
          <mxGeometry relative="1" as="geometry" />
        </mxCell>
        <mxCell id="51" value="&lt;font style=&quot;color: rgb(0, 0, 0); font-size: 18px;&quot;&gt;C&lt;/font&gt;" style="ellipse;whiteSpace=wrap;html=1;aspect=fixed;fillColor=#66B2FF;" parent="1" vertex="1">
          <mxGeometry x="320" y="240" width="40" height="40" as="geometry" />
        </mxCell>
        <mxCell id="52" style="edgeStyle=none;html=1;exitX=1;exitY=0.5;exitDx=0;exitDy=0;entryX=0;entryY=0.5;entryDx=0;entryDy=0;endArrow=none;endFill=0;" parent="1" source="54" target="56" edge="1">
          <mxGeometry relative="1" as="geometry" />
        </mxCell>
        <mxCell id="53" style="edgeStyle=none;html=1;exitX=1;exitY=0;exitDx=0;exitDy=0;entryX=0;entryY=1;entryDx=0;entryDy=0;endArrow=none;endFill=0;" parent="1" source="54" target="57" edge="1">
          <mxGeometry relative="1" as="geometry" />
        </mxCell>
        <mxCell id="54" value="&lt;font style=&quot;color: rgb(0, 0, 0); font-size: 18px;&quot;&gt;D&lt;/font&gt;" style="ellipse;whiteSpace=wrap;html=1;aspect=fixed;fillColor=#66B2FF;" parent="1" vertex="1">
          <mxGeometry x="120" y="360" width="40" height="40" as="geometry" />
        </mxCell>
        <mxCell id="55" style="edgeStyle=none;html=1;exitX=0;exitY=0;exitDx=0;exitDy=0;endArrow=none;endFill=0;" parent="1" source="56" target="57" edge="1">
          <mxGeometry relative="1" as="geometry" />
        </mxCell>
        <mxCell id="56" value="&lt;span style=&quot;font-size: 18px;&quot;&gt;E&lt;/span&gt;" style="ellipse;whiteSpace=wrap;html=1;aspect=fixed;fillColor=#66B2FF;" parent="1" vertex="1">
          <mxGeometry x="280" y="360" width="40" height="40" as="geometry" />
        </mxCell>
        <mxCell id="57" value="&lt;font style=&quot;color: rgb(0, 0, 0); font-size: 18px;&quot;&gt;F&lt;/font&gt;" style="ellipse;whiteSpace=wrap;html=1;aspect=fixed;fillColor=#66B2FF;" parent="1" vertex="1">
          <mxGeometry x="200" y="280" width="40" height="40" as="geometry" />
        </mxCell>
        <mxCell id="58" style="edgeStyle=none;html=1;exitX=1;exitY=0.5;exitDx=0;exitDy=0;entryX=0;entryY=0;entryDx=0;entryDy=0;endArrow=none;endFill=0;" parent="1" source="44" target="57" edge="1">
          <mxGeometry relative="1" as="geometry" />
        </mxCell>
        <mxCell id="59" value="5" style="text;html=1;align=center;verticalAlign=middle;resizable=0;points=[];autosize=1;strokeColor=none;fillColor=none;fontColor=light-dark(#ff0000, #ededed);fontSize=14;" parent="1" vertex="1">
          <mxGeometry x="270" y="180" width="30" height="30" as="geometry" />
        </mxCell>
        <mxCell id="60" value="4" style="text;html=1;align=center;verticalAlign=middle;resizable=0;points=[];autosize=1;strokeColor=none;fillColor=none;fontColor=light-dark(#ff0000, #ededed);fontSize=14;" parent="1" vertex="1">
          <mxGeometry x="270" y="244" width="30" height="30" as="geometry" />
        </mxCell>
        <mxCell id="61" value="4" style="text;html=1;align=center;verticalAlign=middle;resizable=0;points=[];autosize=1;strokeColor=none;fillColor=none;fontColor=light-dark(#ff0000, #ededed);fontSize=14;" parent="1" vertex="1">
          <mxGeometry x="260" y="320" width="30" height="30" as="geometry" />
        </mxCell>
        <mxCell id="62" value="2" style="text;html=1;align=center;verticalAlign=middle;resizable=0;points=[];autosize=1;strokeColor=none;fillColor=none;fontColor=light-dark(#ff0000, #ededed);fontSize=14;" parent="1" vertex="1">
          <mxGeometry x="330" y="310" width="30" height="30" as="geometry" />
        </mxCell>
        <mxCell id="63" value="3" style="text;html=1;align=center;verticalAlign=middle;resizable=0;points=[];autosize=1;strokeColor=none;fillColor=none;fontColor=light-dark(#ff0000, #ededed);fontSize=14;" parent="1" vertex="1">
          <mxGeometry x="90" y="320" width="30" height="30" as="geometry" />
        </mxCell>
        <mxCell id="64" value="6" style="text;html=1;align=center;verticalAlign=middle;resizable=0;points=[];autosize=1;strokeColor=none;fillColor=none;fontColor=light-dark(#ff0000, #ededed);fontSize=14;" parent="1" vertex="1">
          <mxGeometry x="130" y="190" width="30" height="30" as="geometry" />
        </mxCell>
        <mxCell id="65" value="5" style="text;html=1;align=center;verticalAlign=middle;resizable=0;points=[];autosize=1;strokeColor=none;fillColor=none;fontColor=light-dark(#ff0000, #ededed);fontSize=14;" parent="1" vertex="1">
          <mxGeometry x="150" y="240" width="30" height="30" as="geometry" />
        </mxCell>
        <mxCell id="66" value="6" style="text;html=1;align=center;verticalAlign=middle;resizable=0;points=[];autosize=1;strokeColor=none;fillColor=none;fontColor=light-dark(#ff0000, #ededed);fontSize=14;" parent="1" vertex="1">
          <mxGeometry x="150" y="320" width="30" height="30" as="geometry" />
        </mxCell>
        <mxCell id="67" value="6" style="text;html=1;align=center;verticalAlign=middle;resizable=0;points=[];autosize=1;strokeColor=none;fillColor=none;fontColor=light-dark(#ff0000, #ededed);fontSize=14;" parent="1" vertex="1">
          <mxGeometry x="205" y="380" width="30" height="30" as="geometry" />
        </mxCell>
        <mxCell id="68" value="1" style="text;html=1;align=center;verticalAlign=middle;resizable=0;points=[];autosize=1;strokeColor=none;fillColor=none;fontColor=light-dark(#ff0000, #ededed);fontSize=14;" parent="1" vertex="1">
          <mxGeometry x="220" y="230" width="30" height="30" as="geometry" />
        </mxCell>
        <mxCell id="70" value="&lt;font style=&quot;color: rgb(0, 0, 0); font-size: 18px;&quot;&gt;B&lt;/font&gt;" style="ellipse;whiteSpace=wrap;html=1;aspect=fixed;fillColor=#66B2FF;" parent="1" vertex="1">
          <mxGeometry x="480" y="240" width="40" height="40" as="geometry" />
        </mxCell>
        <mxCell id="74" value="&lt;font style=&quot;color: rgb(0, 0, 0); font-size: 18px;&quot;&gt;A&lt;/font&gt;" style="ellipse;whiteSpace=wrap;html=1;aspect=fixed;fillColor=#66B2FF;" parent="1" vertex="1">
          <mxGeometry x="600" y="160" width="40" height="40" as="geometry" />
        </mxCell>
        <mxCell id="77" value="&lt;font style=&quot;color: rgb(0, 0, 0); font-size: 18px;&quot;&gt;C&lt;/font&gt;" style="ellipse;whiteSpace=wrap;html=1;aspect=fixed;fillColor=#66B2FF;" parent="1" vertex="1">
          <mxGeometry x="720" y="240" width="40" height="40" as="geometry" />
        </mxCell>
        <mxCell id="80" value="&lt;font style=&quot;color: rgb(0, 0, 0); font-size: 18px;&quot;&gt;D&lt;/font&gt;" style="ellipse;whiteSpace=wrap;html=1;aspect=fixed;fillColor=#66B2FF;" parent="1" vertex="1">
          <mxGeometry x="520" y="360" width="40" height="40" as="geometry" />
        </mxCell>
        <mxCell id="82" value="&lt;span style=&quot;font-size: 18px;&quot;&gt;E&lt;/span&gt;" style="ellipse;whiteSpace=wrap;html=1;aspect=fixed;fillColor=#66B2FF;" parent="1" vertex="1">
          <mxGeometry x="680" y="360" width="40" height="40" as="geometry" />
        </mxCell>
        <mxCell id="83" value="&lt;font style=&quot;color: rgb(0, 0, 0); font-size: 18px;&quot;&gt;F&lt;/font&gt;" style="ellipse;whiteSpace=wrap;html=1;aspect=fixed;fillColor=#66B2FF;" parent="1" vertex="1">
          <mxGeometry x="600" y="280" width="40" height="40" as="geometry" />
        </mxCell>
        <mxCell id="95" value="&lt;span style=&quot;font-size: 18px;&quot;&gt;步骤1&lt;/span&gt;" style="text;html=1;align=center;verticalAlign=middle;whiteSpace=wrap;rounded=0;" parent="1" vertex="1">
          <mxGeometry x="130" y="550" width="190" height="30" as="geometry" />
        </mxCell>
        <mxCell id="96" value="&lt;font style=&quot;color: rgb(0, 0, 0); font-size: 18px;&quot;&gt;B&lt;/font&gt;" style="ellipse;whiteSpace=wrap;html=1;aspect=fixed;fillColor=#66B2FF;" parent="1" vertex="1">
          <mxGeometry x="80" y="720" width="40" height="40" as="geometry" />
        </mxCell>
        <mxCell id="97" value="&lt;font style=&quot;color: rgb(0, 0, 0); font-size: 18px;&quot;&gt;A&lt;/font&gt;" style="ellipse;whiteSpace=wrap;html=1;aspect=fixed;fillColor=#66B2FF;" parent="1" vertex="1">
          <mxGeometry x="200" y="640" width="40" height="40" as="geometry" />
        </mxCell>
        <mxCell id="98" value="&lt;font style=&quot;color: rgb(0, 0, 0); font-size: 18px;&quot;&gt;C&lt;/font&gt;" style="ellipse;whiteSpace=wrap;html=1;aspect=fixed;fillColor=#66B2FF;" parent="1" vertex="1">
          <mxGeometry x="320" y="720" width="40" height="40" as="geometry" />
        </mxCell>
        <mxCell id="99" value="&lt;font style=&quot;color: rgb(0, 0, 0); font-size: 18px;&quot;&gt;D&lt;/font&gt;" style="ellipse;whiteSpace=wrap;html=1;aspect=fixed;fillColor=#66B2FF;" parent="1" vertex="1">
          <mxGeometry x="120" y="840" width="40" height="40" as="geometry" />
        </mxCell>
        <mxCell id="100" value="&lt;span style=&quot;font-size: 18px;&quot;&gt;E&lt;/span&gt;" style="ellipse;whiteSpace=wrap;html=1;aspect=fixed;fillColor=#66B2FF;" parent="1" vertex="1">
          <mxGeometry x="280" y="840" width="40" height="40" as="geometry" />
        </mxCell>
        <mxCell id="101" value="&lt;font style=&quot;color: rgb(0, 0, 0); font-size: 18px;&quot;&gt;F&lt;/font&gt;" style="ellipse;whiteSpace=wrap;html=1;aspect=fixed;fillColor=#66B2FF;" parent="1" vertex="1">
          <mxGeometry x="200" y="760" width="40" height="40" as="geometry" />
        </mxCell>
        <mxCell id="102" value="先找权重最小的边，&lt;span style=&quot;background-color: transparent;&quot;&gt;这里先连接 AF。&lt;/span&gt;" style="text;html=1;align=left;verticalAlign=middle;resizable=0;points=[];autosize=1;strokeColor=none;fillColor=none;fontSize=14;" parent="1" vertex="1">
          <mxGeometry x="80" y="940" width="260" height="30" as="geometry" />
        </mxCell>
        <mxCell id="103" style="edgeStyle=none;html=1;exitX=0.5;exitY=1;exitDx=0;exitDy=0;entryX=0.5;entryY=0;entryDx=0;entryDy=0;endArrow=none;endFill=0;strokeColor=#FF0000;" parent="1" edge="1">
          <mxGeometry relative="1" as="geometry">
            <mxPoint x="220" y="680" as="sourcePoint" />
            <mxPoint x="220" y="760" as="targetPoint" />
          </mxGeometry>
        </mxCell>
        <mxCell id="104" value="1" style="text;html=1;align=center;verticalAlign=middle;resizable=0;points=[];autosize=1;strokeColor=none;fillColor=none;fontColor=light-dark(#ff0000, #ededed);fontSize=14;" parent="1" vertex="1">
          <mxGeometry x="220" y="710" width="30" height="30" as="geometry" />
        </mxCell>
        <mxCell id="115" value="&lt;span style=&quot;font-size: 18px;&quot;&gt;步骤2&lt;/span&gt;" style="text;html=1;align=center;verticalAlign=middle;whiteSpace=wrap;rounded=0;" parent="1" vertex="1">
          <mxGeometry x="525" y="560" width="190" height="30" as="geometry" />
        </mxCell>
        <mxCell id="116" value="&lt;font style=&quot;color: rgb(0, 0, 0); font-size: 18px;&quot;&gt;B&lt;/font&gt;" style="ellipse;whiteSpace=wrap;html=1;aspect=fixed;fillColor=#66B2FF;" parent="1" vertex="1">
          <mxGeometry x="480" y="720" width="40" height="40" as="geometry" />
        </mxCell>
        <mxCell id="117" value="&lt;font style=&quot;color: rgb(0, 0, 0); font-size: 18px;&quot;&gt;A&lt;/font&gt;" style="ellipse;whiteSpace=wrap;html=1;aspect=fixed;fillColor=#66B2FF;" parent="1" vertex="1">
          <mxGeometry x="600" y="640" width="40" height="40" as="geometry" />
        </mxCell>
        <mxCell id="127" style="edgeStyle=none;html=1;exitX=1;exitY=1;exitDx=0;exitDy=0;entryX=1;entryY=0;entryDx=0;entryDy=0;endArrow=none;endFill=0;strokeColor=#FF9933;" parent="1" source="118" target="120" edge="1">
          <mxGeometry relative="1" as="geometry" />
        </mxCell>
        <mxCell id="118" value="&lt;font style=&quot;color: rgb(0, 0, 0); font-size: 18px;&quot;&gt;C&lt;/font&gt;" style="ellipse;whiteSpace=wrap;html=1;aspect=fixed;fillColor=#66B2FF;" parent="1" vertex="1">
          <mxGeometry x="720" y="720" width="40" height="40" as="geometry" />
        </mxCell>
        <mxCell id="119" value="&lt;font style=&quot;color: rgb(0, 0, 0); font-size: 18px;&quot;&gt;D&lt;/font&gt;" style="ellipse;whiteSpace=wrap;html=1;aspect=fixed;fillColor=#66B2FF;" parent="1" vertex="1">
          <mxGeometry x="520" y="840" width="40" height="40" as="geometry" />
        </mxCell>
        <mxCell id="120" value="&lt;span style=&quot;font-size: 18px;&quot;&gt;E&lt;/span&gt;" style="ellipse;whiteSpace=wrap;html=1;aspect=fixed;fillColor=#66B2FF;" parent="1" vertex="1">
          <mxGeometry x="680" y="840" width="40" height="40" as="geometry" />
        </mxCell>
        <mxCell id="121" value="&lt;font style=&quot;color: rgb(0, 0, 0); font-size: 18px;&quot;&gt;F&lt;/font&gt;" style="ellipse;whiteSpace=wrap;html=1;aspect=fixed;fillColor=#66B2FF;" parent="1" vertex="1">
          <mxGeometry x="600" y="760" width="40" height="40" as="geometry" />
        </mxCell>
        <mxCell id="122" value="再找最小的边 CE，&lt;span style=&quot;color: rgb(0, 0, 0);&quot;&gt;BD 不在已连通的节点里，&lt;/span&gt;&lt;div&gt;所以可以连接 CE。&lt;/div&gt;" style="text;html=1;align=left;verticalAlign=middle;resizable=0;points=[];autosize=1;strokeColor=none;fillColor=none;fontSize=14;" parent="1" vertex="1">
          <mxGeometry x="480" y="940" width="310" height="50" as="geometry" />
        </mxCell>
        <mxCell id="123" style="edgeStyle=none;html=1;exitX=0.5;exitY=1;exitDx=0;exitDy=0;entryX=0.5;entryY=0;entryDx=0;entryDy=0;endArrow=none;endFill=0;strokeColor=#FF0000;" parent="1" edge="1">
          <mxGeometry relative="1" as="geometry">
            <mxPoint x="620" y="680" as="sourcePoint" />
            <mxPoint x="620" y="760" as="targetPoint" />
          </mxGeometry>
        </mxCell>
        <mxCell id="124" value="1" style="text;html=1;align=center;verticalAlign=middle;resizable=0;points=[];autosize=1;strokeColor=none;fillColor=none;fontColor=light-dark(#ff0000, #ededed);fontSize=14;" parent="1" vertex="1">
          <mxGeometry x="620" y="710" width="30" height="30" as="geometry" />
        </mxCell>
        <mxCell id="125" value="2" style="text;html=1;align=center;verticalAlign=middle;resizable=0;points=[];autosize=1;strokeColor=none;fillColor=none;fontColor=light-dark(#ff0000, #ededed);fontSize=14;" parent="1" vertex="1">
          <mxGeometry x="731" y="796" width="30" height="30" as="geometry" />
        </mxCell>
        <mxCell id="128" value="先去掉所有的边和权重，只留下节点。&lt;div&gt;根据边权重的值，依次连接边。&lt;/div&gt;&lt;div&gt;&lt;span style=&quot;color: rgb(0, 0, 0);&quot;&gt;要注意加边的时候，要判断边的点，&lt;/span&gt;&lt;div&gt;是否已经连通了，不需要直连。如果连通了，就不能加了。&lt;/div&gt;&lt;/div&gt;" style="text;html=1;align=left;verticalAlign=middle;resizable=0;points=[];autosize=1;strokeColor=none;fillColor=none;fontSize=14;" parent="1" vertex="1">
          <mxGeometry x="450" y="450" width="390" height="80" as="geometry" />
        </mxCell>
        <mxCell id="129" value="&lt;span style=&quot;font-size: 18px;&quot;&gt;步骤3&lt;/span&gt;" style="text;html=1;align=center;verticalAlign=middle;whiteSpace=wrap;rounded=0;" parent="1" vertex="1">
          <mxGeometry x="931" y="560" width="190" height="30" as="geometry" />
        </mxCell>
        <mxCell id="130" value="&lt;font style=&quot;color: rgb(0, 0, 0); font-size: 18px;&quot;&gt;B&lt;/font&gt;" style="ellipse;whiteSpace=wrap;html=1;aspect=fixed;fillColor=#66B2FF;" parent="1" vertex="1">
          <mxGeometry x="880" y="720" width="40" height="40" as="geometry" />
        </mxCell>
        <mxCell id="131" value="&lt;font style=&quot;color: rgb(0, 0, 0); font-size: 18px;&quot;&gt;A&lt;/font&gt;" style="ellipse;whiteSpace=wrap;html=1;aspect=fixed;fillColor=#66B2FF;" parent="1" vertex="1">
          <mxGeometry x="1000" y="640" width="40" height="40" as="geometry" />
        </mxCell>
        <mxCell id="132" style="edgeStyle=none;html=1;exitX=1;exitY=1;exitDx=0;exitDy=0;entryX=1;entryY=0;entryDx=0;entryDy=0;endArrow=none;endFill=0;strokeColor=#FF9933;" parent="1" source="133" target="135" edge="1">
          <mxGeometry relative="1" as="geometry" />
        </mxCell>
        <mxCell id="133" value="&lt;font style=&quot;color: rgb(0, 0, 0); font-size: 18px;&quot;&gt;C&lt;/font&gt;" style="ellipse;whiteSpace=wrap;html=1;aspect=fixed;fillColor=#66B2FF;" parent="1" vertex="1">
          <mxGeometry x="1120" y="720" width="40" height="40" as="geometry" />
        </mxCell>
        <mxCell id="134" value="&lt;font style=&quot;color: rgb(0, 0, 0); font-size: 18px;&quot;&gt;D&lt;/font&gt;" style="ellipse;whiteSpace=wrap;html=1;aspect=fixed;fillColor=#66B2FF;" parent="1" vertex="1">
          <mxGeometry x="920" y="840" width="40" height="40" as="geometry" />
        </mxCell>
        <mxCell id="135" value="&lt;span style=&quot;font-size: 18px;&quot;&gt;E&lt;/span&gt;" style="ellipse;whiteSpace=wrap;html=1;aspect=fixed;fillColor=#66B2FF;" parent="1" vertex="1">
          <mxGeometry x="1080" y="840" width="40" height="40" as="geometry" />
        </mxCell>
        <mxCell id="136" value="&lt;font style=&quot;color: rgb(0, 0, 0); font-size: 18px;&quot;&gt;F&lt;/font&gt;" style="ellipse;whiteSpace=wrap;html=1;aspect=fixed;fillColor=#66B2FF;" parent="1" vertex="1">
          <mxGeometry x="1000" y="760" width="40" height="40" as="geometry" />
        </mxCell>
        <mxCell id="137" value="再找最小的边 BD，BD 不在已连通的节点里，&lt;div&gt;所以可以连接 CE。&lt;/div&gt;" style="text;html=1;align=left;verticalAlign=middle;resizable=0;points=[];autosize=1;strokeColor=none;fillColor=none;fontSize=14;" parent="1" vertex="1">
          <mxGeometry x="850" y="940" width="310" height="50" as="geometry" />
        </mxCell>
        <mxCell id="138" style="edgeStyle=none;html=1;exitX=0.5;exitY=1;exitDx=0;exitDy=0;entryX=0.5;entryY=0;entryDx=0;entryDy=0;endArrow=none;endFill=0;strokeColor=#FF0000;" parent="1" edge="1">
          <mxGeometry relative="1" as="geometry">
            <mxPoint x="1020" y="680" as="sourcePoint" />
            <mxPoint x="1020" y="760" as="targetPoint" />
          </mxGeometry>
        </mxCell>
        <mxCell id="139" value="1" style="text;html=1;align=center;verticalAlign=middle;resizable=0;points=[];autosize=1;strokeColor=none;fillColor=none;fontColor=light-dark(#ff0000, #ededed);fontSize=14;" parent="1" vertex="1">
          <mxGeometry x="1020" y="710" width="30" height="30" as="geometry" />
        </mxCell>
        <mxCell id="140" value="2" style="text;html=1;align=center;verticalAlign=middle;resizable=0;points=[];autosize=1;strokeColor=none;fillColor=none;fontColor=light-dark(#ff0000, #ededed);fontSize=14;" parent="1" vertex="1">
          <mxGeometry x="1131" y="796" width="30" height="30" as="geometry" />
        </mxCell>
        <mxCell id="142" value="3" style="text;html=1;align=center;verticalAlign=middle;resizable=0;points=[];autosize=1;strokeColor=none;fillColor=none;fontColor=light-dark(#ff0000, #ededed);fontSize=14;" parent="1" vertex="1">
          <mxGeometry x="889" y="800" width="30" height="30" as="geometry" />
        </mxCell>
        <mxCell id="143" style="edgeStyle=none;html=1;exitX=0.5;exitY=1;exitDx=0;exitDy=0;entryX=0;entryY=0;entryDx=0;entryDy=0;endArrow=none;endFill=0;strokeColor=#80FF00;" parent="1" edge="1">
          <mxGeometry relative="1" as="geometry">
            <mxPoint x="899" y="760" as="sourcePoint" />
            <mxPoint x="925" y="846" as="targetPoint" />
          </mxGeometry>
        </mxCell>
        <mxCell id="144" value="&lt;span style=&quot;font-size: 18px;&quot;&gt;步骤4&lt;/span&gt;" style="text;html=1;align=center;verticalAlign=middle;whiteSpace=wrap;rounded=0;" parent="1" vertex="1">
          <mxGeometry x="130" y="1080" width="190" height="30" as="geometry" />
        </mxCell>
        <mxCell id="145" value="&lt;font style=&quot;color: rgb(0, 0, 0); font-size: 18px;&quot;&gt;B&lt;/font&gt;" style="ellipse;whiteSpace=wrap;html=1;aspect=fixed;fillColor=#66B2FF;" parent="1" vertex="1">
          <mxGeometry x="80" y="1240" width="40" height="40" as="geometry" />
        </mxCell>
        <mxCell id="146" value="&lt;font style=&quot;color: rgb(0, 0, 0); font-size: 18px;&quot;&gt;A&lt;/font&gt;" style="ellipse;whiteSpace=wrap;html=1;aspect=fixed;fillColor=#66B2FF;" parent="1" vertex="1">
          <mxGeometry x="200" y="1160" width="40" height="40" as="geometry" />
        </mxCell>
        <mxCell id="147" style="edgeStyle=none;html=1;exitX=1;exitY=1;exitDx=0;exitDy=0;entryX=1;entryY=0;entryDx=0;entryDy=0;endArrow=none;endFill=0;strokeColor=#FF9933;" parent="1" source="148" target="150" edge="1">
          <mxGeometry relative="1" as="geometry" />
        </mxCell>
        <mxCell id="148" value="&lt;font style=&quot;color: rgb(0, 0, 0); font-size: 18px;&quot;&gt;C&lt;/font&gt;" style="ellipse;whiteSpace=wrap;html=1;aspect=fixed;fillColor=#66B2FF;" parent="1" vertex="1">
          <mxGeometry x="320" y="1240" width="40" height="40" as="geometry" />
        </mxCell>
        <mxCell id="149" value="&lt;font style=&quot;color: rgb(0, 0, 0); font-size: 18px;&quot;&gt;D&lt;/font&gt;" style="ellipse;whiteSpace=wrap;html=1;aspect=fixed;fillColor=#66B2FF;" parent="1" vertex="1">
          <mxGeometry x="120" y="1360" width="40" height="40" as="geometry" />
        </mxCell>
        <mxCell id="150" value="&lt;span style=&quot;font-size: 18px;&quot;&gt;E&lt;/span&gt;" style="ellipse;whiteSpace=wrap;html=1;aspect=fixed;fillColor=#66B2FF;" parent="1" vertex="1">
          <mxGeometry x="280" y="1360" width="40" height="40" as="geometry" />
        </mxCell>
        <mxCell id="151" value="&lt;font style=&quot;color: rgb(0, 0, 0); font-size: 18px;&quot;&gt;F&lt;/font&gt;" style="ellipse;whiteSpace=wrap;html=1;aspect=fixed;fillColor=#66B2FF;" parent="1" vertex="1">
          <mxGeometry x="200" y="1280" width="40" height="40" as="geometry" />
        </mxCell>
        <mxCell id="152" value="此时最小的三个边已经连接了，剩下最小的是&lt;div&gt;权重为4的边，即 FC 和 FE。&lt;/div&gt;&lt;div&gt;说明最小生成树不止一个，这里选择连接 FC。&lt;/div&gt;" style="text;html=1;align=left;verticalAlign=middle;resizable=0;points=[];autosize=1;strokeColor=none;fillColor=none;fontSize=14;" parent="1" vertex="1">
          <mxGeometry x="80" y="1460" width="310" height="60" as="geometry" />
        </mxCell>
        <mxCell id="153" style="edgeStyle=none;html=1;exitX=0.5;exitY=1;exitDx=0;exitDy=0;entryX=0.5;entryY=0;entryDx=0;entryDy=0;endArrow=none;endFill=0;strokeColor=#FF0000;" parent="1" edge="1">
          <mxGeometry relative="1" as="geometry">
            <mxPoint x="220" y="1200" as="sourcePoint" />
            <mxPoint x="220" y="1280" as="targetPoint" />
          </mxGeometry>
        </mxCell>
        <mxCell id="154" value="1" style="text;html=1;align=center;verticalAlign=middle;resizable=0;points=[];autosize=1;strokeColor=none;fillColor=none;fontColor=light-dark(#ff0000, #ededed);fontSize=14;" parent="1" vertex="1">
          <mxGeometry x="220" y="1230" width="30" height="30" as="geometry" />
        </mxCell>
        <mxCell id="155" value="2" style="text;html=1;align=center;verticalAlign=middle;resizable=0;points=[];autosize=1;strokeColor=none;fillColor=none;fontColor=light-dark(#ff0000, #ededed);fontSize=14;" parent="1" vertex="1">
          <mxGeometry x="331" y="1316" width="30" height="30" as="geometry" />
        </mxCell>
        <mxCell id="156" value="3" style="text;html=1;align=center;verticalAlign=middle;resizable=0;points=[];autosize=1;strokeColor=none;fillColor=none;fontColor=light-dark(#ff0000, #ededed);fontSize=14;" parent="1" vertex="1">
          <mxGeometry x="89" y="1320" width="30" height="30" as="geometry" />
        </mxCell>
        <mxCell id="157" style="edgeStyle=none;html=1;exitX=0.5;exitY=1;exitDx=0;exitDy=0;entryX=0;entryY=0;entryDx=0;entryDy=0;endArrow=none;endFill=0;strokeColor=#80FF00;" parent="1" edge="1">
          <mxGeometry relative="1" as="geometry">
            <mxPoint x="99" y="1280" as="sourcePoint" />
            <mxPoint x="125" y="1366" as="targetPoint" />
          </mxGeometry>
        </mxCell>
        <mxCell id="158" value="4" style="text;html=1;align=center;verticalAlign=middle;resizable=0;points=[];autosize=1;strokeColor=none;fillColor=none;fontColor=light-dark(#ff0000, #ededed);fontSize=14;" parent="1" vertex="1">
          <mxGeometry x="270" y="1245" width="30" height="30" as="geometry" />
        </mxCell>
        <mxCell id="159" style="edgeStyle=none;html=1;exitX=0;exitY=0.5;exitDx=0;exitDy=0;entryX=1;entryY=0;entryDx=0;entryDy=0;endArrow=none;endFill=0;strokeColor=#9933FF;" parent="1" edge="1">
          <mxGeometry relative="1" as="geometry">
            <mxPoint x="320" y="1260" as="sourcePoint" />
            <mxPoint x="234" y="1286" as="targetPoint" />
          </mxGeometry>
        </mxCell>
        <mxCell id="160" value="&lt;span style=&quot;font-size: 18px;&quot;&gt;步骤5&lt;/span&gt;" style="text;html=1;align=center;verticalAlign=middle;whiteSpace=wrap;rounded=0;" parent="1" vertex="1">
          <mxGeometry x="525" y="1080" width="190" height="30" as="geometry" />
        </mxCell>
        <mxCell id="161" value="&lt;font style=&quot;color: rgb(0, 0, 0); font-size: 18px;&quot;&gt;B&lt;/font&gt;" style="ellipse;whiteSpace=wrap;html=1;aspect=fixed;fillColor=#66B2FF;" parent="1" vertex="1">
          <mxGeometry x="480" y="1240" width="40" height="40" as="geometry" />
        </mxCell>
        <mxCell id="162" value="&lt;font style=&quot;color: rgb(0, 0, 0); font-size: 18px;&quot;&gt;A&lt;/font&gt;" style="ellipse;whiteSpace=wrap;html=1;aspect=fixed;fillColor=#66B2FF;" parent="1" vertex="1">
          <mxGeometry x="600" y="1160" width="40" height="40" as="geometry" />
        </mxCell>
        <mxCell id="163" style="edgeStyle=none;html=1;exitX=1;exitY=1;exitDx=0;exitDy=0;entryX=1;entryY=0;entryDx=0;entryDy=0;endArrow=none;endFill=0;strokeColor=#FF9933;" parent="1" source="164" target="166" edge="1">
          <mxGeometry relative="1" as="geometry" />
        </mxCell>
        <mxCell id="164" value="&lt;font style=&quot;color: rgb(0, 0, 0); font-size: 18px;&quot;&gt;C&lt;/font&gt;" style="ellipse;whiteSpace=wrap;html=1;aspect=fixed;fillColor=#66B2FF;" parent="1" vertex="1">
          <mxGeometry x="720" y="1240" width="40" height="40" as="geometry" />
        </mxCell>
        <mxCell id="165" value="&lt;font style=&quot;color: rgb(0, 0, 0); font-size: 18px;&quot;&gt;D&lt;/font&gt;" style="ellipse;whiteSpace=wrap;html=1;aspect=fixed;fillColor=#66B2FF;" parent="1" vertex="1">
          <mxGeometry x="520" y="1360" width="40" height="40" as="geometry" />
        </mxCell>
        <mxCell id="166" value="&lt;span style=&quot;font-size: 18px;&quot;&gt;E&lt;/span&gt;" style="ellipse;whiteSpace=wrap;html=1;aspect=fixed;fillColor=#66B2FF;" parent="1" vertex="1">
          <mxGeometry x="680" y="1360" width="40" height="40" as="geometry" />
        </mxCell>
        <mxCell id="167" value="&lt;font style=&quot;color: rgb(0, 0, 0); font-size: 18px;&quot;&gt;F&lt;/font&gt;" style="ellipse;whiteSpace=wrap;html=1;aspect=fixed;fillColor=#66B2FF;" parent="1" vertex="1">
          <mxGeometry x="600" y="1280" width="40" height="40" as="geometry" />
        </mxCell>
        <mxCell id="168" value="现在剩下权重最小的边是 FE，权重是4，由于边&lt;div&gt;FE 的两个节点，都已经连通了，所以就不能选择&lt;/div&gt;&lt;div&gt;FE 节点。要找比 FE 的权重大的边 5，这里是&amp;nbsp;&lt;/div&gt;&lt;div&gt;AC 和 BF，要求边还没有&lt;span style=&quot;background-color: transparent;&quot;&gt;被加入到已经连通的&lt;/span&gt;&lt;/div&gt;&lt;div&gt;&lt;span style=&quot;background-color: transparent;&quot;&gt;分量里，所以 AC 不符合，只能选择 BF。&lt;/span&gt;&lt;/div&gt;" style="text;html=1;align=left;verticalAlign=middle;resizable=0;points=[];autosize=1;strokeColor=none;fillColor=none;fontSize=14;" parent="1" vertex="1">
          <mxGeometry x="460" y="1460" width="330" height="100" as="geometry" />
        </mxCell>
        <mxCell id="169" style="edgeStyle=none;html=1;exitX=0.5;exitY=1;exitDx=0;exitDy=0;entryX=0.5;entryY=0;entryDx=0;entryDy=0;endArrow=none;endFill=0;strokeColor=#FF0000;" parent="1" edge="1">
          <mxGeometry relative="1" as="geometry">
            <mxPoint x="620" y="1200" as="sourcePoint" />
            <mxPoint x="620" y="1280" as="targetPoint" />
          </mxGeometry>
        </mxCell>
        <mxCell id="170" value="1" style="text;html=1;align=center;verticalAlign=middle;resizable=0;points=[];autosize=1;strokeColor=none;fillColor=none;fontColor=light-dark(#ff0000, #ededed);fontSize=14;" parent="1" vertex="1">
          <mxGeometry x="620" y="1230" width="30" height="30" as="geometry" />
        </mxCell>
        <mxCell id="171" value="2" style="text;html=1;align=center;verticalAlign=middle;resizable=0;points=[];autosize=1;strokeColor=none;fillColor=none;fontColor=light-dark(#ff0000, #ededed);fontSize=14;" parent="1" vertex="1">
          <mxGeometry x="731" y="1316" width="30" height="30" as="geometry" />
        </mxCell>
        <mxCell id="172" value="3" style="text;html=1;align=center;verticalAlign=middle;resizable=0;points=[];autosize=1;strokeColor=none;fillColor=none;fontColor=light-dark(#ff0000, #ededed);fontSize=14;" parent="1" vertex="1">
          <mxGeometry x="489" y="1320" width="30" height="30" as="geometry" />
        </mxCell>
        <mxCell id="173" style="edgeStyle=none;html=1;exitX=0.5;exitY=1;exitDx=0;exitDy=0;entryX=0;entryY=0;entryDx=0;entryDy=0;endArrow=none;endFill=0;strokeColor=#80FF00;" parent="1" edge="1">
          <mxGeometry relative="1" as="geometry">
            <mxPoint x="499" y="1280" as="sourcePoint" />
            <mxPoint x="525" y="1366" as="targetPoint" />
          </mxGeometry>
        </mxCell>
        <mxCell id="174" value="4" style="text;html=1;align=center;verticalAlign=middle;resizable=0;points=[];autosize=1;strokeColor=none;fillColor=none;fontColor=light-dark(#ff0000, #ededed);fontSize=14;" parent="1" vertex="1">
          <mxGeometry x="670" y="1245" width="30" height="30" as="geometry" />
        </mxCell>
        <mxCell id="175" style="edgeStyle=none;html=1;exitX=0;exitY=0.5;exitDx=0;exitDy=0;entryX=1;entryY=0;entryDx=0;entryDy=0;endArrow=none;endFill=0;strokeColor=#9933FF;" parent="1" edge="1">
          <mxGeometry relative="1" as="geometry">
            <mxPoint x="720" y="1260" as="sourcePoint" />
            <mxPoint x="634" y="1286" as="targetPoint" />
          </mxGeometry>
        </mxCell>
        <mxCell id="176" style="edgeStyle=none;html=1;exitX=1;exitY=0.5;exitDx=0;exitDy=0;entryX=0;entryY=0;entryDx=0;entryDy=0;endArrow=none;endFill=0;strokeColor=#FF0080;" parent="1" edge="1">
          <mxGeometry relative="1" as="geometry">
            <mxPoint x="520" y="1260" as="sourcePoint" />
            <mxPoint x="606" y="1286" as="targetPoint" />
          </mxGeometry>
        </mxCell>
        <mxCell id="177" value="5" style="text;html=1;align=center;verticalAlign=middle;resizable=0;points=[];autosize=1;strokeColor=none;fillColor=none;fontColor=light-dark(#ff0000, #ededed);fontSize=14;" parent="1" vertex="1">
          <mxGeometry x="550" y="1245" width="30" height="30" as="geometry" />
        </mxCell>
        <mxCell id="178" value="&lt;span style=&quot;font-size: 18px;&quot;&gt;步骤6&lt;/span&gt;" style="text;html=1;align=center;verticalAlign=middle;whiteSpace=wrap;rounded=0;" parent="1" vertex="1">
          <mxGeometry x="920" y="1080" width="190" height="30" as="geometry" />
        </mxCell>
        <mxCell id="179" value="&lt;font style=&quot;color: rgb(0, 0, 0); font-size: 18px;&quot;&gt;B&lt;/font&gt;" style="ellipse;whiteSpace=wrap;html=1;aspect=fixed;fillColor=#66B2FF;" parent="1" vertex="1">
          <mxGeometry x="879" y="1240" width="40" height="40" as="geometry" />
        </mxCell>
        <mxCell id="180" value="&lt;font style=&quot;color: rgb(0, 0, 0); font-size: 18px;&quot;&gt;A&lt;/font&gt;" style="ellipse;whiteSpace=wrap;html=1;aspect=fixed;fillColor=#66B2FF;" parent="1" vertex="1">
          <mxGeometry x="999" y="1160" width="40" height="40" as="geometry" />
        </mxCell>
        <mxCell id="181" style="edgeStyle=none;html=1;exitX=1;exitY=1;exitDx=0;exitDy=0;entryX=1;entryY=0;entryDx=0;entryDy=0;endArrow=none;endFill=0;strokeColor=#FF9933;" parent="1" source="182" target="184" edge="1">
          <mxGeometry relative="1" as="geometry" />
        </mxCell>
        <mxCell id="182" value="&lt;font style=&quot;color: rgb(0, 0, 0); font-size: 18px;&quot;&gt;C&lt;/font&gt;" style="ellipse;whiteSpace=wrap;html=1;aspect=fixed;fillColor=#66B2FF;" parent="1" vertex="1">
          <mxGeometry x="1119" y="1240" width="40" height="40" as="geometry" />
        </mxCell>
        <mxCell id="183" value="&lt;font style=&quot;color: rgb(0, 0, 0); font-size: 18px;&quot;&gt;D&lt;/font&gt;" style="ellipse;whiteSpace=wrap;html=1;aspect=fixed;fillColor=#66B2FF;" parent="1" vertex="1">
          <mxGeometry x="919" y="1360" width="40" height="40" as="geometry" />
        </mxCell>
        <mxCell id="184" value="&lt;span style=&quot;font-size: 18px;&quot;&gt;E&lt;/span&gt;" style="ellipse;whiteSpace=wrap;html=1;aspect=fixed;fillColor=#66B2FF;" parent="1" vertex="1">
          <mxGeometry x="1079" y="1360" width="40" height="40" as="geometry" />
        </mxCell>
        <mxCell id="185" value="&lt;font style=&quot;color: rgb(0, 0, 0); font-size: 18px;&quot;&gt;F&lt;/font&gt;" style="ellipse;whiteSpace=wrap;html=1;aspect=fixed;fillColor=#66B2FF;" parent="1" vertex="1">
          <mxGeometry x="999" y="1280" width="40" height="40" as="geometry" />
        </mxCell>
        <mxCell id="187" style="edgeStyle=none;html=1;exitX=0.5;exitY=1;exitDx=0;exitDy=0;entryX=0.5;entryY=0;entryDx=0;entryDy=0;endArrow=none;endFill=0;strokeColor=#FF0000;" parent="1" edge="1">
          <mxGeometry relative="1" as="geometry">
            <mxPoint x="1019" y="1200" as="sourcePoint" />
            <mxPoint x="1019" y="1280" as="targetPoint" />
          </mxGeometry>
        </mxCell>
        <mxCell id="188" value="1" style="text;html=1;align=center;verticalAlign=middle;resizable=0;points=[];autosize=1;strokeColor=none;fillColor=none;fontColor=light-dark(#ff0000, #ededed);fontSize=14;" parent="1" vertex="1">
          <mxGeometry x="1019" y="1230" width="30" height="30" as="geometry" />
        </mxCell>
        <mxCell id="189" value="2" style="text;html=1;align=center;verticalAlign=middle;resizable=0;points=[];autosize=1;strokeColor=none;fillColor=none;fontColor=light-dark(#ff0000, #ededed);fontSize=14;" parent="1" vertex="1">
          <mxGeometry x="1130" y="1316" width="30" height="30" as="geometry" />
        </mxCell>
        <mxCell id="190" value="3" style="text;html=1;align=center;verticalAlign=middle;resizable=0;points=[];autosize=1;strokeColor=none;fillColor=none;fontColor=light-dark(#ff0000, #ededed);fontSize=14;" parent="1" vertex="1">
          <mxGeometry x="888" y="1320" width="30" height="30" as="geometry" />
        </mxCell>
        <mxCell id="191" style="edgeStyle=none;html=1;exitX=0.5;exitY=1;exitDx=0;exitDy=0;entryX=0;entryY=0;entryDx=0;entryDy=0;endArrow=none;endFill=0;strokeColor=#80FF00;" parent="1" edge="1">
          <mxGeometry relative="1" as="geometry">
            <mxPoint x="898" y="1280" as="sourcePoint" />
            <mxPoint x="924" y="1366" as="targetPoint" />
          </mxGeometry>
        </mxCell>
        <mxCell id="192" value="4" style="text;html=1;align=center;verticalAlign=middle;resizable=0;points=[];autosize=1;strokeColor=none;fillColor=none;fontColor=light-dark(#ff0000, #ededed);fontSize=14;" parent="1" vertex="1">
          <mxGeometry x="1069" y="1245" width="30" height="30" as="geometry" />
        </mxCell>
        <mxCell id="193" style="edgeStyle=none;html=1;exitX=0;exitY=0.5;exitDx=0;exitDy=0;entryX=1;entryY=0;entryDx=0;entryDy=0;endArrow=none;endFill=0;strokeColor=#9933FF;" parent="1" edge="1">
          <mxGeometry relative="1" as="geometry">
            <mxPoint x="1119" y="1260" as="sourcePoint" />
            <mxPoint x="1033" y="1286" as="targetPoint" />
          </mxGeometry>
        </mxCell>
        <mxCell id="194" style="edgeStyle=none;html=1;exitX=1;exitY=0.5;exitDx=0;exitDy=0;entryX=0.963;entryY=1.129;entryDx=0;entryDy=0;endArrow=none;endFill=0;strokeColor=#FF0080;entryPerimeter=0;" parent="1" edge="1" target="188">
          <mxGeometry relative="1" as="geometry">
            <mxPoint x="919" y="1260" as="sourcePoint" />
            <mxPoint x="1005" y="1286" as="targetPoint" />
          </mxGeometry>
        </mxCell>
        <mxCell id="195" value="5" style="text;html=1;align=center;verticalAlign=middle;resizable=0;points=[];autosize=1;strokeColor=none;fillColor=none;fontColor=light-dark(#ff0000, #ededed);fontSize=14;" parent="1" vertex="1">
          <mxGeometry x="949" y="1245" width="30" height="30" as="geometry" />
        </mxCell>
        <mxCell id="196" value="此时所有的点都被加入到连通分量里了，&lt;div&gt;所以连接完成，最小生成树完成。&lt;/div&gt;" style="text;html=1;align=left;verticalAlign=middle;resizable=0;points=[];autosize=1;strokeColor=none;fillColor=none;fontSize=14;" parent="1" vertex="1">
          <mxGeometry x="870" y="1455" width="280" height="50" as="geometry" />
        </mxCell>
        <mxCell id="oTOOA_pkX1mUT1bbZCmd-196" value="" style="rounded=0;whiteSpace=wrap;html=1;fillColor=none;" vertex="1" parent="1">
          <mxGeometry x="40" y="120" width="360" height="320" as="geometry" />
        </mxCell>
        <mxCell id="oTOOA_pkX1mUT1bbZCmd-197" value="" style="rounded=0;whiteSpace=wrap;html=1;fillColor=none;" vertex="1" parent="1">
          <mxGeometry x="440" y="120" width="360" height="320" as="geometry" />
        </mxCell>
        <mxCell id="oTOOA_pkX1mUT1bbZCmd-211" value="" style="rounded=0;whiteSpace=wrap;html=1;fillColor=none;" vertex="1" parent="1">
          <mxGeometry x="440" y="600" width="360" height="320" as="geometry" />
        </mxCell>
        <mxCell id="oTOOA_pkX1mUT1bbZCmd-213" value="" style="rounded=0;whiteSpace=wrap;html=1;fillColor=none;" vertex="1" parent="1">
          <mxGeometry x="840" y="600" width="360" height="320" as="geometry" />
        </mxCell>
        <mxCell id="oTOOA_pkX1mUT1bbZCmd-214" value="" style="rounded=0;whiteSpace=wrap;html=1;fillColor=none;" vertex="1" parent="1">
          <mxGeometry x="40" y="1120" width="360" height="320" as="geometry" />
        </mxCell>
        <mxCell id="oTOOA_pkX1mUT1bbZCmd-215" value="" style="rounded=0;whiteSpace=wrap;html=1;fillColor=none;" vertex="1" parent="1">
          <mxGeometry x="440" y="1120" width="360" height="320" as="geometry" />
        </mxCell>
        <mxCell id="oTOOA_pkX1mUT1bbZCmd-216" value="" style="rounded=0;whiteSpace=wrap;html=1;fillColor=none;" vertex="1" parent="1">
          <mxGeometry x="840" y="1120" width="360" height="320" as="geometry" />
        </mxCell>
      </root>
    </mxGraphModel>
  </diagram>
</mxfile>
